# xmcd
#
# Track frame offsets: 
#        150
#        19083
#        34333
#        50472
#        65509
#        81589
#        95051
#        117427
#        132977
#        151852
#        166155
#
# Disc length: 2390 seconds
#
# Revision: 0
# Processed by: cddbd v1.5.2PL0 Copyright (c) Steve Scherf et al.
# Submitted via: ExactAudioCopy v0.99pb5
#
DISCID=9309540b
DTITLE=Delta Moon - You'll Never Get To Heaven On A Hellbound Train
DYEAR=2009
DGENRE=Blues
TTITLE0=Hellbound Train
TTITLE1=Room 429
TTITLE2=Lonely
TTITLE3=Get Gone
TTITLE4=True Love Lies
TTITLE5=You Got To Move
TTITLE6=Stuck In Carolina
TTITLE7=Ain't No Train
TTITLE8=Ghost In My Guitar
TTITLE9=Take The Back Road Home
TTITLE10=Plantation Song
EXTD=
EXTT0=
EXTT1=
EXTT2=
EXTT3=
EXTT4=
EXTT5=
EXTT6=
EXTT7=
EXTT8=
EXTT9=
EXTT10=
PLAYORDER=
